<?xml version="1.0" encoding="UTF-8" standalone="no"?>
<!DOCTYPE svg PUBLIC "-//W3C//DTD SVG 1.1//EN"
 "http://www.w3.org/Graphics/SVG/1.1/DTD/svg11.dtd">
<!-- Generated by graphviz version 2.40.1 (20161225.0304)
 -->
<!-- Title: Combinations Pages: 1 -->
<svg width="464pt" height="476pt"
 viewBox="0.00 0.00 463.79 476.00" xmlns="http://www.w3.org/2000/svg" xmlns:xlink="http://www.w3.org/1999/xlink">
<g id="graph0" class="graph" transform="scale(1 1) rotate(0) translate(4 472)">
<title>Combinations</title>
<polygon fill="#ffffff" stroke="transparent" points="-4,4 -4,-472 459.794,-472 459.794,4 -4,4"/>
<!-- 1 -->
<g id="node1" class="node">
<title>1</title>
<text text-anchor="middle" x="428.794" y="-229.8" font-family="Times,serif" font-size="14.00" fill="#000000">Shape</text>
</g>
<!-- 2 -->
<g id="node2" class="node">
<title>2</title>
<text text-anchor="middle" x="260.018" y="-364.8" font-family="Times,serif" font-size="14.00" fill="#000000">Part</text>
</g>
<!-- 2&#45;&gt;1 -->
<g id="edge1" class="edge">
<title>2&#45;&gt;1</title>
<path fill="none" stroke="#000000" d="M282.7799,-350.7933C312.5583,-326.9742 364.8478,-285.1491 398.1042,-258.5481"/>
<polygon fill="#000000" stroke="#000000" points="400.5009,-261.1129 406.1239,-252.1333 396.1284,-255.6465 400.5009,-261.1129"/>
<text text-anchor="middle" x="360.4665" y="-309.2" font-family="Times,serif" font-size="14.00" fill="#000000">contains</text>
</g>
<!-- 3 -->
<g id="node3" class="node">
<title>3</title>
<text text-anchor="middle" x="260.018" y="-229.8" font-family="Times,serif" font-size="14.00" fill="#000000">Link</text>
</g>
<!-- 3&#45;&gt;1 -->
<g id="edge2" class="edge">
<title>3&#45;&gt;1</title>
<path fill="none" stroke="#000000" d="M287.1348,-234C315.4315,-234 359.9948,-234 391.5748,-234"/>
<polygon fill="#000000" stroke="#000000" points="391.7445,-237.5001 401.7445,-234 391.7445,-230.5001 391.7445,-237.5001"/>
<text text-anchor="middle" x="360.4665" y="-238.2" font-family="Times,serif" font-size="14.00" fill="#000000">to</text>
</g>
<!-- 4 -->
<g id="node4" class="node">
<title>4</title>
<text text-anchor="middle" x="260.018" y="-94.8" font-family="Times,serif" font-size="14.00" fill="#000000">Transformed Link</text>
</g>
<!-- 4&#45;&gt;1 -->
<g id="edge3" class="edge">
<title>4&#45;&gt;1</title>
<path fill="none" stroke="#000000" d="M282.7799,-117.2067C312.5583,-141.0258 364.8478,-182.8509 398.1042,-209.4519"/>
<polygon fill="#000000" stroke="#000000" points="396.1284,-212.3535 406.1239,-215.8667 400.5009,-206.8871 396.1284,-212.3535"/>
<text text-anchor="middle" x="360.4665" y="-201.2" font-family="Times,serif" font-size="14.00" fill="#000000">to</text>
</g>
<!-- 5 -->
<g id="node5" class="node">
<title>5</title>
<text text-anchor="middle" x="59.121" y="-445.8" font-family="Times,serif" font-size="14.00" fill="#000000">Part</text>
</g>
<!-- 5&#45;&gt;2 -->
<g id="edge4" class="edge">
<title>5&#45;&gt;2</title>
<path fill="none" stroke="#000000" d="M86.428,-440.8471C111.6856,-432.1989 150.1543,-418.5633 182.897,-405 196.2772,-399.4574 210.7169,-392.8817 223.4433,-386.8765"/>
<polygon fill="#000000" stroke="#000000" points="225.2723,-389.8822 232.7954,-382.4221 222.2621,-383.5624 225.2723,-389.8822"/>
<text text-anchor="middle" x="159.5695" y="-426.2" font-family="Times,serif" font-size="14.00" fill="#000000">contains</text>
</g>
<!-- 6 -->
<g id="node6" class="node">
<title>6</title>
<text text-anchor="middle" x="59.121" y="-391.8" font-family="Times,serif" font-size="14.00" fill="#000000">Link</text>
</g>
<!-- 6&#45;&gt;2 -->
<g id="edge5" class="edge">
<title>6&#45;&gt;2</title>
<path fill="none" stroke="#000000" d="M86.2149,-392.3587C121.4121,-387.6282 183.0303,-379.3469 222.6515,-374.022"/>
<polygon fill="#000000" stroke="#000000" points="223.2671,-377.4708 232.7118,-372.6699 222.3347,-370.5331 223.2671,-377.4708"/>
<text text-anchor="middle" x="159.5695" y="-388.2" font-family="Times,serif" font-size="14.00" fill="#000000">to</text>
</g>
<!-- 7 -->
<g id="node7" class="node">
<title>7</title>
<text text-anchor="middle" x="59.121" y="-337.8" font-family="Times,serif" font-size="14.00" fill="#000000">Transformed Link</text>
</g>
<!-- 7&#45;&gt;2 -->
<g id="edge6" class="edge">
<title>7&#45;&gt;2</title>
<path fill="none" stroke="#000000" d="M118.3101,-349.9549C152.1211,-354.499 193.4808,-360.0576 222.7686,-363.9938"/>
<polygon fill="#000000" stroke="#000000" points="222.5992,-367.5024 232.9763,-365.3657 223.5316,-360.5648 222.5992,-367.5024"/>
<text text-anchor="middle" x="159.5695" y="-361.2" font-family="Times,serif" font-size="14.00" fill="#000000">to</text>
</g>
<!-- 8 -->
<g id="node8" class="node">
<title>8</title>
<text text-anchor="middle" x="59.121" y="-283.8" font-family="Times,serif" font-size="14.00" fill="#000000">Part</text>
</g>
<!-- 8&#45;&gt;3 -->
<g id="edge7" class="edge">
<title>8&#45;&gt;3</title>
<path fill="none" stroke="#000000" d="M86.1752,-280.8312C111.2584,-274.1743 149.6129,-263.9685 182.897,-255 196.0068,-251.4675 210.3611,-247.5676 223.0936,-244.0972"/>
<polygon fill="#000000" stroke="#000000" points="224.1761,-247.4299 232.9023,-241.4213 222.3337,-240.6767 224.1761,-247.4299"/>
<text text-anchor="middle" x="159.5695" y="-270.2" font-family="Times,serif" font-size="14.00" fill="#000000">contains</text>
</g>
<!-- 9 -->
<g id="node9" class="node">
<title>9</title>
<text text-anchor="middle" x="59.121" y="-229.8" font-family="Times,serif" font-size="14.00" fill="#000000">Link</text>
</g>
<!-- 9&#45;&gt;3 -->
<g id="edge8" class="edge">
<title>9&#45;&gt;3</title>
<path fill="none" stroke="#000000" d="M86.2149,-234C121.4121,-234 183.0303,-234 222.6515,-234"/>
<polygon fill="#000000" stroke="#000000" points="222.7118,-237.5001 232.7118,-234 222.7118,-230.5001 222.7118,-237.5001"/>
<text text-anchor="middle" x="159.5695" y="-238.2" font-family="Times,serif" font-size="14.00" fill="#000000">to</text>
</g>
<!-- 10 -->
<g id="node10" class="node">
<title>10</title>
<text text-anchor="middle" x="59.121" y="-175.8" font-family="Times,serif" font-size="14.00" fill="#000000">Transformed Link</text>
</g>
<!-- 10&#45;&gt;3 -->
<g id="edge9" class="edge">
<title>10&#45;&gt;3</title>
<path fill="none" stroke="#000000" d="M118.307,-195.8575C138.7682,-201.3443 161.8418,-207.5369 182.897,-213.2 195.9998,-216.7242 210.3525,-220.5929 223.0856,-224.028"/>
<polygon fill="#000000" stroke="#000000" points="222.3287,-227.4489 232.8953,-226.675 224.1524,-220.6906 222.3287,-227.4489"/>
<text text-anchor="middle" x="159.5695" y="-217.2" font-family="Times,serif" font-size="14.00" fill="#000000">to</text>
</g>
<!-- 11 -->
<g id="node11" class="node">
<title>11</title>
<text text-anchor="middle" x="59.121" y="-121.8" font-family="Times,serif" font-size="14.00" fill="#000000">Part</text>
</g>
<!-- 11&#45;&gt;4 -->
<g id="edge10" class="edge">
<title>11&#45;&gt;4</title>
<path fill="none" stroke="#000000" d="M86.2149,-122.3587C112.941,-118.7667 154.9008,-113.1275 190.8965,-108.2897"/>
<polygon fill="#000000" stroke="#000000" points="191.4286,-111.7498 200.8733,-106.9489 190.4962,-104.8122 191.4286,-111.7498"/>
<text text-anchor="middle" x="159.5695" y="-118.2" font-family="Times,serif" font-size="14.00" fill="#000000">contains</text>
</g>
<!-- 12 -->
<g id="node12" class="node">
<title>12</title>
<text text-anchor="middle" x="59.121" y="-67.8" font-family="Times,serif" font-size="14.00" fill="#000000">Link</text>
</g>
<!-- 12&#45;&gt;4 -->
<g id="edge11" class="edge">
<title>12&#45;&gt;4</title>
<path fill="none" stroke="#000000" d="M86.2149,-75.6413C112.941,-79.2333 154.9008,-84.8725 190.8965,-89.7103"/>
<polygon fill="#000000" stroke="#000000" points="190.4962,-93.1878 200.8733,-91.0511 191.4286,-86.2502 190.4962,-93.1878"/>
<text text-anchor="middle" x="159.5695" y="-91.2" font-family="Times,serif" font-size="14.00" fill="#000000">to</text>
</g>
<!-- 13 -->
<g id="node13" class="node">
<title>13</title>
<text text-anchor="middle" x="59.121" y="-13.8" font-family="Times,serif" font-size="14.00" fill="#000000">Transformed Link</text>
</g>
<!-- 13&#45;&gt;4 -->
<g id="edge12" class="edge">
<title>13&#45;&gt;4</title>
<path fill="none" stroke="#000000" d="M113.4984,-36.069C135.2681,-43.6519 160.4588,-52.8689 182.897,-62.2 193.2797,-66.5177 204.2749,-71.5047 214.6097,-76.3861"/>
<polygon fill="#000000" stroke="#000000" points="213.347,-79.6618 223.8787,-80.8171 216.3661,-73.3463 213.347,-79.6618"/>
<text text-anchor="middle" x="159.5695" y="-66.2" font-family="Times,serif" font-size="14.00" fill="#000000">to</text>
</g>
</g>
</svg>
