<?xml version="1.0" encoding="UTF-8" standalone="no"?>
<!DOCTYPE svg PUBLIC "-//W3C//DTD SVG 1.1//EN"
 "http://www.w3.org/Graphics/SVG/1.1/DTD/svg11.dtd">
<!-- Generated by graphviz version 2.40.1 (20161225.0304)
 -->
<!-- Title: Combinations Pages: 1 -->
<svg width="462pt" height="476pt"
 viewBox="0.00 0.00 462.26 476.00" xmlns="http://www.w3.org/2000/svg" xmlns:xlink="http://www.w3.org/1999/xlink">
<g id="graph0" class="graph" transform="scale(1 1) rotate(0) translate(4 472)">
<title>Combinations</title>
<polygon fill="#ffffff" stroke="transparent" points="-4,4 -4,-472 458.2568,-472 458.2568,4 -4,4"/>
<!-- 1 -->
<g id="node1" class="node">
<title>1</title>
<text text-anchor="middle" x="427.2568" y="-229.8" font-family="Times,serif" font-size="14.00" fill="#000000">Shape</text>
</g>
<!-- 2 -->
<g id="node2" class="node">
<title>2</title>
<text text-anchor="middle" x="252.6421" y="-364.8" font-family="Times,serif" font-size="14.00" fill="#000000">Part</text>
</g>
<!-- 2&#45;&gt;1 -->
<g id="edge1" class="edge">
<title>2&#45;&gt;1</title>
<path fill="none" stroke="#000000" d="M276.1914,-350.7933C307,-326.9742 361.0984,-285.1491 395.5053,-258.5481"/>
<polygon fill="#000000" stroke="#000000" points="398.0318,-261.0188 403.8024,-252.1333 393.7503,-255.4809 398.0318,-261.0188"/>
<text text-anchor="middle" x="352.7063" y="-317.2" font-family="Times,serif" font-size="14.00" fill="#000000">containing</text>
</g>
<!-- 3 -->
<g id="node3" class="node">
<title>3</title>
<text text-anchor="middle" x="252.6421" y="-229.8" font-family="Times,serif" font-size="14.00" fill="#000000">Link</text>
</g>
<!-- 3&#45;&gt;1 -->
<g id="edge2" class="edge">
<title>3&#45;&gt;1</title>
<path fill="none" stroke="#000000" d="M279.9256,-234C309.5263,-234 356.9684,-234 389.9908,-234"/>
<polygon fill="#000000" stroke="#000000" points="390.1649,-237.5001 400.1648,-234 390.1648,-230.5001 390.1649,-237.5001"/>
<text text-anchor="middle" x="352.7063" y="-238.2" font-family="Times,serif" font-size="14.00" fill="#000000">to</text>
</g>
<!-- 4 -->
<g id="node4" class="node">
<title>4</title>
<text text-anchor="middle" x="252.6421" y="-94.8" font-family="Times,serif" font-size="14.00" fill="#000000">Transform Link</text>
</g>
<!-- 4&#45;&gt;1 -->
<g id="edge3" class="edge">
<title>4&#45;&gt;1</title>
<path fill="none" stroke="#000000" d="M276.1914,-117.2067C307,-141.0258 361.0984,-182.8509 395.5053,-209.4519"/>
<polygon fill="#000000" stroke="#000000" points="393.7503,-212.5191 403.8024,-215.8667 398.0318,-206.9812 393.7503,-212.5191"/>
<text text-anchor="middle" x="352.7063" y="-201.2" font-family="Times,serif" font-size="14.00" fill="#000000">to</text>
</g>
<!-- 5 -->
<g id="node5" class="node">
<title>5</title>
<text text-anchor="middle" x="52.5137" y="-445.8" font-family="Times,serif" font-size="14.00" fill="#000000">Part</text>
</g>
<!-- 5&#45;&gt;2 -->
<g id="edge4" class="edge">
<title>5&#45;&gt;2</title>
<path fill="none" stroke="#000000" d="M79.5328,-442.1764C106.0757,-434.1778 147.5135,-420.8494 182.1284,-406 193.5432,-401.1032 205.6309,-395.0862 216.5133,-389.3386"/>
<polygon fill="#000000" stroke="#000000" points="218.1753,-392.4188 225.3297,-384.6043 214.8637,-386.2517 218.1753,-392.4188"/>
<text text-anchor="middle" x="152.5779" y="-431.2" font-family="Times,serif" font-size="14.00" fill="#000000">containing</text>
</g>
<!-- 6 -->
<g id="node6" class="node">
<title>6</title>
<text text-anchor="middle" x="52.5137" y="-391.8" font-family="Times,serif" font-size="14.00" fill="#000000">Link</text>
</g>
<!-- 6&#45;&gt;2 -->
<g id="edge5" class="edge">
<title>6&#45;&gt;2</title>
<path fill="none" stroke="#000000" d="M79.9211,-392.3024C115.1016,-387.5561 176.2786,-379.3025 215.5861,-373.9994"/>
<polygon fill="#000000" stroke="#000000" points="216.1235,-377.4586 225.5657,-372.653 215.1875,-370.5215 216.1235,-377.4586"/>
<text text-anchor="middle" x="152.5779" y="-389.2" font-family="Times,serif" font-size="14.00" fill="#000000">to</text>
</g>
<!-- 7 -->
<g id="node7" class="node">
<title>7</title>
<text text-anchor="middle" x="52.5137" y="-337.8" font-family="Times,serif" font-size="14.00" fill="#000000">Transform Link</text>
</g>
<!-- 7&#45;&gt;2 -->
<g id="edge6" class="edge">
<title>7&#45;&gt;2</title>
<path fill="none" stroke="#000000" d="M105.2154,-348.252C128.7682,-351.1324 156.8592,-354.6864 182.1284,-358.2 193.0046,-359.7123 204.8053,-361.4725 215.5856,-363.1276"/>
<polygon fill="#000000" stroke="#000000" points="215.1272,-366.5982 225.5452,-364.6706 216.199,-359.6808 215.1272,-366.5982"/>
<text text-anchor="middle" x="152.5779" y="-362.2" font-family="Times,serif" font-size="14.00" fill="#000000">to</text>
</g>
<!-- 8 -->
<g id="node8" class="node">
<title>8</title>
<text text-anchor="middle" x="52.5137" y="-283.8" font-family="Times,serif" font-size="14.00" fill="#000000">Part</text>
</g>
<!-- 8&#45;&gt;3 -->
<g id="edge7" class="edge">
<title>8&#45;&gt;3</title>
<path fill="none" stroke="#000000" d="M79.6565,-281.4259C105.939,-274.9808 146.8751,-264.733 182.1284,-255 193.1579,-251.9549 205.1023,-248.4696 215.9709,-245.225"/>
<polygon fill="#000000" stroke="#000000" points="217.0238,-248.5633 225.5928,-242.3325 215.0085,-241.8597 217.0238,-248.5633"/>
<text text-anchor="middle" x="152.5779" y="-273.2" font-family="Times,serif" font-size="14.00" fill="#000000">containing</text>
</g>
<!-- 9 -->
<g id="node9" class="node">
<title>9</title>
<text text-anchor="middle" x="52.5137" y="-229.8" font-family="Times,serif" font-size="14.00" fill="#000000">Link</text>
</g>
<!-- 9&#45;&gt;3 -->
<g id="edge8" class="edge">
<title>9&#45;&gt;3</title>
<path fill="none" stroke="#000000" d="M79.9211,-234C115.0267,-234 176.0184,-234 215.3349,-234"/>
<polygon fill="#000000" stroke="#000000" points="215.5658,-237.5001 225.5657,-234 215.5657,-230.5001 215.5658,-237.5001"/>
<text text-anchor="middle" x="152.5779" y="-238.2" font-family="Times,serif" font-size="14.00" fill="#000000">to</text>
</g>
<!-- 10 -->
<g id="node10" class="node">
<title>10</title>
<text text-anchor="middle" x="52.5137" y="-175.8" font-family="Times,serif" font-size="14.00" fill="#000000">Transform Link</text>
</g>
<!-- 10&#45;&gt;3 -->
<g id="edge9" class="edge">
<title>10&#45;&gt;3</title>
<path fill="none" stroke="#000000" d="M105.2861,-193.0585C128.8522,-199.0079 156.9342,-206.2599 182.1284,-213.2 193.1511,-216.2364 205.0935,-219.6945 215.9624,-222.9076"/>
<polygon fill="#000000" stroke="#000000" points="215.0021,-226.2734 225.585,-225.7703 216.9982,-219.564 215.0021,-226.2734"/>
<text text-anchor="middle" x="152.5779" y="-217.2" font-family="Times,serif" font-size="14.00" fill="#000000">to</text>
</g>
<!-- 11 -->
<g id="node11" class="node">
<title>11</title>
<text text-anchor="middle" x="52.5137" y="-121.8" font-family="Times,serif" font-size="14.00" fill="#000000">Part</text>
</g>
<!-- 11&#45;&gt;4 -->
<g id="edge10" class="edge">
<title>11&#45;&gt;4</title>
<path fill="none" stroke="#000000" d="M79.9211,-122.3024C108.1023,-118.5004 152.9648,-112.4478 189.9049,-107.4641"/>
<polygon fill="#000000" stroke="#000000" points="190.6512,-110.8952 200.0934,-106.0895 189.7152,-103.9581 190.6512,-110.8952"/>
<text text-anchor="middle" x="152.5779" y="-119.2" font-family="Times,serif" font-size="14.00" fill="#000000">containing</text>
</g>
<!-- 12 -->
<g id="node12" class="node">
<title>12</title>
<text text-anchor="middle" x="52.5137" y="-67.8" font-family="Times,serif" font-size="14.00" fill="#000000">Link</text>
</g>
<!-- 12&#45;&gt;4 -->
<g id="edge11" class="edge">
<title>12&#45;&gt;4</title>
<path fill="none" stroke="#000000" d="M79.8519,-75.1944C106.1035,-78.3145 146.8638,-83.2966 182.1284,-88.2 184.6507,-88.5507 187.2228,-88.9148 189.8204,-89.2878"/>
<polygon fill="#000000" stroke="#000000" points="189.5134,-92.78 199.9142,-90.7614 190.5247,-85.8534 189.5134,-92.78"/>
<text text-anchor="middle" x="152.5779" y="-92.2" font-family="Times,serif" font-size="14.00" fill="#000000">to</text>
</g>
<!-- 13 -->
<g id="node13" class="node">
<title>13</title>
<text text-anchor="middle" x="52.5137" y="-13.8" font-family="Times,serif" font-size="14.00" fill="#000000">Transform Link</text>
</g>
<!-- 13&#45;&gt;4 -->
<g id="edge12" class="edge">
<title>13&#45;&gt;4</title>
<path fill="none" stroke="#000000" d="M105.1324,-32.0439C129.0481,-39.1045 157.4503,-48.4504 182.1284,-59.2 193.0931,-63.9761 204.5579,-69.9735 214.9794,-75.8529"/>
<polygon fill="#000000" stroke="#000000" points="213.4188,-78.9932 223.8303,-80.9556 216.915,-72.9288 213.4188,-78.9932"/>
<text text-anchor="middle" x="152.5779" y="-63.2" font-family="Times,serif" font-size="14.00" fill="#000000">to</text>
</g>
</g>
</svg>
