o Body
v 10.0 0.0 0.0
v 9.396926 3.420202 0.0
v 10.0 0.0 10.0
v 9.396926 3.420202 10.0
v 7.660444 6.427876 0.0
v 7.660444 6.427876 10.0
v 5.0 8.660254 10.0
v 5.0 8.660254 0.0
v 1.736482 9.848078 0.0
v 1.736482 9.848078 10.0
v -1.736482 9.848078 10.0
v -1.736482 9.848078 0.0
v -5.0 8.660254 0.0
v -5.0 8.660254 10.0
v -7.660444 6.427876 0.0
v -7.660444 6.427876 10.0
v -9.396926 3.420202 10.0
v -9.396926 3.420202 0.0
v -10.0 0.0 10.0
v -10.0 0.0 0.0
v -9.396926 -3.420202 0.0
v -9.396926 -3.420202 10.0
v -7.660444 -6.427876 0.0
v -7.660444 -6.427876 10.0
v -5.0 -8.660254 0.0
v -5.0 -8.660254 10.0
v -1.736482 -9.848078 0.0
v -1.736482 -9.848078 10.0
v 1.736482 -9.848078 0.0
v 1.736482 -9.848078 10.0
v 5.0 -8.660254 0.0
v 5.0 -8.660254 10.0
v 7.660444 -6.427876 10.0
v 7.660444 -6.427876 0.0
v 9.396926 -3.420202 0.0
v 9.396926 -3.420202 10.0
vn 0.9848077297210693 0.17364825308322906 -0.0
vn 0.9848077297210693 0.17364825308322906 0.0
vn 0.8660253882408142 0.5 0.0
vn 0.6427876949310303 0.7660443782806396 0.0
vn 0.8660253882408142 0.5 -0.0
vn 0.6427876949310303 0.7660443782806396 0.0
vn 0.34202006459236145 0.9396926760673523 0.0
vn 0.0 1.0 0.0
vn 0.34202006459236145 0.9396926760673523 -0.0
vn 0.0 1.0 0.0
vn -0.34202006459236145 0.9396926760673523 0.0
vn -0.34202006459236145 0.9396926760673523 0.0
vn -0.6427876949310303 0.7660443782806396 0.0
vn -0.8660253882408142 0.5 0.0
vn -0.6427876949310303 0.7660443782806396 0.0
vn -0.9848077297210693 0.17364825308322906 0.0
vn -0.8660253882408142 0.5 0.0
vn -0.9848077297210693 0.17364825308322906 0.0
vn -0.9848077297210693 -0.17364825308322906 0.0
vn -0.9848077297210693 -0.17364825308322906 0.0
vn -0.8660253882408142 -0.5 0.0
vn -0.8660253882408142 -0.5 0.0
vn -0.6427876949310303 -0.7660443782806396 0.0
vn -0.6427876949310303 -0.7660443782806396 0.0
vn -0.34202006459236145 -0.9396926760673523 0.0
vn -0.34202006459236145 -0.9396926760673523 0.0
vn 0.0 -1.0 0.0
vn 0.0 -1.0 0.0
vn 0.34202006459236145 -0.9396926760673523 0.0
vn 0.34202006459236145 -0.9396926760673523 0.0
vn 0.6427876949310303 -0.7660443782806396 0.0
vn 0.6427876949310303 -0.7660443782806396 0.0
vn 0.8660253882408142 -0.5 0.0
vn 0.8660253882408142 -0.5 0.0
vn 0.9848077297210693 -0.17364825308322906 0.0
vn 0.9848077297210693 -0.17364825308322906 0.0
vn 0.0 0.0 -1.0
vn 0.0 0.0 -1.0
vn 0.0 0.0 -1.0
vn 0.0 -0.0 -1.0
vn 0.0 0.0 -1.0
vn 0.0 -0.0 -1.0
vn 0.0 0.0 -1.0
vn 0.0 0.0 -1.0
vn 0.0 0.0 -1.0
vn 0.0 0.0 -1.0
vn 0.0 0.0 -1.0
vn -0.0 -0.0 -1.0
vn -0.0 -0.0 -1.0
vn 0.0 0.0 -1.0
vn 0.0 0.0 -1.0
vn 0.0 -0.0 -1.0
vn 0.0 0.0 1.0
vn 0.0 0.0 1.0
vn 0.0 0.0 1.0
vn 0.0 0.0 1.0
vn 0.0 0.0 1.0
vn 0.0 0.0 1.0
vn 0.0 0.0 1.0
vn 0.0 0.0 1.0
vn 0.0 0.0 1.0
vn 0.0 0.0 1.0
vn 0.0 0.0 1.0
vn 0.0 0.0 1.0
vn 0.0 0.0 1.0
vn 0.0 0.0 1.0
vn 0.0 0.0 1.0
vn 0.0 0.0 1.0
f 1//1 2//1 3//1
f 3//2 2//2 4//2
f 4//3 5//3 6//3
f 6//4 5//4 7//4
f 2//5 5//5 4//5
f 5//6 8//6 7//6
f 7//7 9//7 10//7
f 10//8 9//8 11//8
f 8//9 9//9 7//9
f 9//10 12//10 11//10
f 11//11 13//11 14//11
f 12//12 13//12 11//12
f 14//13 15//13 16//13
f 16//14 15//14 17//14
f 13//15 15//15 14//15
f 17//16 18//16 19//16
f 15//17 18//17 17//17
f 18//18 20//18 19//18
f 19//19 21//19 22//19
f 20//20 21//20 19//20
f 22//21 23//21 24//21
f 21//22 23//22 22//22
f 24//23 25//23 26//23
f 23//24 25//24 24//24
f 26//25 27//25 28//25
f 25//26 27//26 26//26
f 28//27 29//27 30//27
f 27//28 29//28 28//28
f 29//29 31//29 30//29
f 30//30 31//30 32//30
f 32//31 31//31 33//31
f 31//32 34//32 33//32
f 34//33 35//33 33//33
f 33//34 35//34 36//34
f 36//35 35//35 3//35
f 35//36 1//36 3//36
f 21//37 20//37 23//37
f 25//38 31//38 27//38
f 27//39 31//39 29//39
f 18//40 15//40 20//40
f 20//41 15//41 23//41
f 13//42 12//42 15//42
f 23//43 12//43 25//43
f 15//44 12//44 23//44
f 31//45 1//45 34//45
f 34//46 1//46 35//46
f 1//47 5//47 2//47
f 8//48 5//48 9//48
f 9//49 5//49 12//49
f 31//50 5//50 1//50
f 25//51 5//51 31//51
f 12//52 5//52 25//52
f 19//53 22//53 24//53
f 32//54 26//54 28//54
f 32//55 28//55 30//55
f 16//56 17//56 19//56
f 16//57 19//57 24//57
f 11//58 14//58 16//58
f 11//59 24//59 26//59
f 11//60 16//60 24//60
f 3//61 32//61 33//61
f 3//62 33//62 36//62
f 6//63 3//63 4//63
f 6//64 7//64 10//64
f 6//65 10//65 11//65
f 6//66 32//66 3//66
f 6//67 26//67 32//67
f 6//68 11//68 26//68
o BodyWire0
v 10.00000 0.00000 10.00000
v 10.00000 0.00000 0.00000
v 9.98795 0.49068 0.00000
v 9.95185 0.98017 0.00000
v 9.89177 1.46730 0.00000
v 9.80785 1.95090 0.00000
v 9.70031 2.42980 0.00000
v 9.56940 2.90285 0.00000
v 9.41544 3.36890 0.00000
v 9.23880 3.82683 0.00000
v 9.03989 4.27555 0.00000
v 8.81921 4.71397 0.00000
v 8.57729 5.14103 0.00000
v 8.31470 5.55570 0.00000
v 8.03208 5.95699 0.00000
v 7.73010 6.34393 0.00000
v 7.40951 6.71559 0.00000
v 7.07107 7.07107 0.00000
v 6.71559 7.40951 0.00000
v 6.34393 7.73010 0.00000
v 5.95699 8.03208 0.00000
v 5.55570 8.31470 0.00000
v 5.14103 8.57729 0.00000
v 4.71397 8.81921 0.00000
v 4.27555 9.03989 0.00000
v 3.82683 9.23880 0.00000
v 3.36890 9.41544 0.00000
v 2.90285 9.56940 0.00000
v 2.42980 9.70031 0.00000
v 1.95090 9.80785 0.00000
v 1.46730 9.89177 0.00000
v 0.98017 9.95185 0.00000
v 0.49068 9.98795 0.00000
v 0.00000 10.00000 0.00000
v -0.49068 9.98795 0.00000
v -0.98017 9.95185 0.00000
v -1.46730 9.89177 0.00000
v -1.95090 9.80785 0.00000
v -2.42980 9.70031 0.00000
v -2.90285 9.56940 0.00000
v -3.36890 9.41544 0.00000
v -3.82683 9.23880 0.00000
v -4.27555 9.03989 0.00000
v -4.71397 8.81921 0.00000
v -5.14103 8.57729 0.00000
v -5.55570 8.31470 0.00000
v -5.95699 8.03208 0.00000
v -6.34393 7.73010 0.00000
v -6.71559 7.40951 0.00000
v -7.07107 7.07107 0.00000
v -7.40951 6.71559 0.00000
v -7.73010 6.34393 0.00000
v -8.03208 5.95699 0.00000
v -8.31470 5.55570 0.00000
v -8.57729 5.14103 0.00000
v -8.81921 4.71397 0.00000
v -9.03989 4.27555 0.00000
v -9.23880 3.82683 0.00000
v -9.41544 3.36890 0.00000
v -9.56940 2.90285 0.00000
v -9.70031 2.42980 0.00000
v -9.80785 1.95090 0.00000
v -9.89177 1.46730 0.00000
v -9.95185 0.98017 0.00000
v -9.98795 0.49068 0.00000
v -10.00000 0.00000 0.00000
v -9.98795 -0.49068 0.00000
v -9.95185 -0.98017 0.00000
v -9.89177 -1.46730 0.00000
v -9.80785 -1.95090 0.00000
v -9.70031 -2.42980 0.00000
v -9.56940 -2.90285 0.00000
v -9.41544 -3.36890 0.00000
v -9.23880 -3.82683 0.00000
v -9.03989 -4.27555 0.00000
v -8.81921 -4.71397 0.00000
v -8.57729 -5.14103 0.00000
v -8.31470 -5.55570 0.00000
v -8.03208 -5.95699 0.00000
v -7.73010 -6.34393 0.00000
v -7.40951 -6.71559 0.00000
v -7.07107 -7.07107 0.00000
v -6.71559 -7.40951 0.00000
v -6.34393 -7.73010 0.00000
v -5.95699 -8.03208 0.00000
v -5.55570 -8.31470 0.00000
v -5.14103 -8.57729 0.00000
v -4.71397 -8.81921 0.00000
v -4.27555 -9.03989 0.00000
v -3.82683 -9.23880 0.00000
v -3.36890 -9.41544 0.00000
v -2.90285 -9.56940 0.00000
v -2.42980 -9.70031 0.00000
v -1.95090 -9.80785 0.00000
v -1.46730 -9.89177 0.00000
v -0.98017 -9.95185 0.00000
v -0.49068 -9.98795 0.00000
v -0.00000 -10.00000 0.00000
v 0.49068 -9.98795 0.00000
v 0.98017 -9.95185 0.00000
v 1.46730 -9.89177 0.00000
v 1.95090 -9.80785 0.00000
v 2.42980 -9.70031 0.00000
v 2.90285 -9.56940 0.00000
v 3.36890 -9.41544 0.00000
v 3.82683 -9.23880 0.00000
v 4.27555 -9.03989 0.00000
v 4.71397 -8.81921 0.00000
v 5.14103 -8.57729 0.00000
v 5.55570 -8.31470 0.00000
v 5.95699 -8.03208 0.00000
v 6.34393 -7.73010 0.00000
v 6.71559 -7.40951 0.00000
v 7.07107 -7.07107 0.00000
v 7.40951 -6.71559 0.00000
v 7.73010 -6.34393 0.00000
v 8.03208 -5.95699 0.00000
v 8.31470 -5.55570 0.00000
v 8.57729 -5.14103 0.00000
v 8.81921 -4.71397 0.00000
v 9.03989 -4.27555 0.00000
v 9.23880 -3.82683 0.00000
v 9.41544 -3.36890 0.00000
v 9.56940 -2.90285 0.00000
v 9.70031 -2.42980 0.00000
v 9.80785 -1.95090 0.00000
v 9.89177 -1.46730 0.00000
v 9.95185 -0.98017 0.00000
v 9.98795 -0.49068 0.00000
v 10.00000 -0.00000 0.00000
l 37 38 39 40 41 42 43 44 45 46 47 48 49 50 51 52 53 54 55 56 57 58 59 60 61 62 63 64 65 66 67 68 69 70 71 72 73 74 75 76 77 78 79 80 81 82 83 84 85 86 87 88 89 90 91 92 93 94 95 96 97 98 99 100 101 102 103 104 105 106 107 108 109 110 111 112 113 114 115 116 117 118 119 120 121 122 123 124 125 126 127 128 129 130 131 132 133 134 135 136 137 138 139 140 141 142 143 144 145 146 147 148 149 150 151 152 153 154 155 156 157 158 159 160 161 162 163 164 165 166
o BodyWire1
v 10.00000 -0.00000 0.00000
v 9.98795 -0.49068 0.00000
v 9.95185 -0.98017 0.00000
v 9.89177 -1.46730 0.00000
v 9.80785 -1.95090 0.00000
v 9.70031 -2.42980 0.00000
v 9.56940 -2.90285 0.00000
v 9.41544 -3.36890 0.00000
v 9.23880 -3.82683 0.00000
v 9.03989 -4.27555 0.00000
v 8.81921 -4.71397 0.00000
v 8.57729 -5.14103 0.00000
v 8.31470 -5.55570 0.00000
v 8.03208 -5.95699 0.00000
v 7.73010 -6.34393 0.00000
v 7.40951 -6.71559 0.00000
v 7.07107 -7.07107 0.00000
v 6.71559 -7.40951 0.00000
v 6.34393 -7.73010 0.00000
v 5.95699 -8.03208 0.00000
v 5.55570 -8.31470 0.00000
v 5.14103 -8.57729 0.00000
v 4.71397 -8.81921 0.00000
v 4.27555 -9.03989 0.00000
v 3.82683 -9.23880 0.00000
v 3.36890 -9.41544 0.00000
v 2.90285 -9.56940 0.00000
v 2.42980 -9.70031 0.00000
v 1.95090 -9.80785 0.00000
v 1.46730 -9.89177 0.00000
v 0.98017 -9.95185 0.00000
v 0.49068 -9.98795 0.00000
v -0.00000 -10.00000 0.00000
v -0.49068 -9.98795 0.00000
v -0.98017 -9.95185 0.00000
v -1.46730 -9.89177 0.00000
v -1.95090 -9.80785 0.00000
v -2.42980 -9.70031 0.00000
v -2.90285 -9.56940 0.00000
v -3.36890 -9.41544 0.00000
v -3.82683 -9.23880 0.00000
v -4.27555 -9.03989 0.00000
v -4.71397 -8.81921 0.00000
v -5.14103 -8.57729 0.00000
v -5.55570 -8.31470 0.00000
v -5.95699 -8.03208 0.00000
v -6.34393 -7.73010 0.00000
v -6.71559 -7.40951 0.00000
v -7.07107 -7.07107 0.00000
v -7.40951 -6.71559 0.00000
v -7.73010 -6.34393 0.00000
v -8.03208 -5.95699 0.00000
v -8.31470 -5.55570 0.00000
v -8.57729 -5.14103 0.00000
v -8.81921 -4.71397 0.00000
v -9.03989 -4.27555 0.00000
v -9.23880 -3.82683 0.00000
v -9.41544 -3.36890 0.00000
v -9.56940 -2.90285 0.00000
v -9.70031 -2.42980 0.00000
v -9.80785 -1.95090 0.00000
v -9.89177 -1.46730 0.00000
v -9.95185 -0.98017 0.00000
v -9.98795 -0.49068 0.00000
v -10.00000 0.00000 0.00000
v -9.98795 0.49068 0.00000
v -9.95185 0.98017 0.00000
v -9.89177 1.46730 0.00000
v -9.80785 1.95090 0.00000
v -9.70031 2.42980 0.00000
v -9.56940 2.90285 0.00000
v -9.41544 3.36890 0.00000
v -9.23880 3.82683 0.00000
v -9.03989 4.27555 0.00000
v -8.81921 4.71397 0.00000
v -8.57729 5.14103 0.00000
v -8.31470 5.55570 0.00000
v -8.03208 5.95699 0.00000
v -7.73010 6.34393 0.00000
v -7.40951 6.71559 0.00000
v -7.07107 7.07107 0.00000
v -6.71559 7.40951 0.00000
v -6.34393 7.73010 0.00000
v -5.95699 8.03208 0.00000
v -5.55570 8.31470 0.00000
v -5.14103 8.57729 0.00000
v -4.71397 8.81921 0.00000
v -4.27555 9.03989 0.00000
v -3.82683 9.23880 0.00000
v -3.36890 9.41544 0.00000
v -2.90285 9.56940 0.00000
v -2.42980 9.70031 0.00000
v -1.95090 9.80785 0.00000
v -1.46730 9.89177 0.00000
v -0.98017 9.95185 0.00000
v -0.49068 9.98795 0.00000
v 0.00000 10.00000 0.00000
v 0.49068 9.98795 0.00000
v 0.98017 9.95185 0.00000
v 1.46730 9.89177 0.00000
v 1.95090 9.80785 0.00000
v 2.42980 9.70031 0.00000
v 2.90285 9.56940 0.00000
v 3.36890 9.41544 0.00000
v 3.82683 9.23880 0.00000
v 4.27555 9.03989 0.00000
v 4.71397 8.81921 0.00000
v 5.14103 8.57729 0.00000
v 5.55570 8.31470 0.00000
v 5.95699 8.03208 0.00000
v 6.34393 7.73010 0.00000
v 6.71559 7.40951 0.00000
v 7.07107 7.07107 0.00000
v 7.40951 6.71559 0.00000
v 7.73010 6.34393 0.00000
v 8.03208 5.95699 0.00000
v 8.31470 5.55570 0.00000
v 8.57729 5.14103 0.00000
v 8.81921 4.71397 0.00000
v 9.03989 4.27555 0.00000
v 9.23880 3.82683 0.00000
v 9.41544 3.36890 0.00000
v 9.56940 2.90285 0.00000
v 9.70031 2.42980 0.00000
v 9.80785 1.95090 0.00000
v 9.89177 1.46730 0.00000
v 9.95185 0.98017 0.00000
v 9.98795 0.49068 0.00000
v 10.00000 0.00000 0.00000
l 167 168 169 170 171 172 173 174 175 176 177 178 179 180 181 182 183 184 185 186 187 188 189 190 191 192 193 194 195 196 197 198 199 200 201 202 203 204 205 206 207 208 209 210 211 212 213 214 215 216 217 218 219 220 221 222 223 224 225 226 227 228 229 230 231 232 233 234 235 236 237 238 239 240 241 242 243 244 245 246 247 248 249 250 251 252 253 254 255 256 257 258 259 260 261 262 263 264 265 266 267 268 269 270 271 272 273 274 275 276 277 278 279 280 281 282 283 284 285 286 287 288 289 290 291 292 293 294 295
o BodyWire2
v 10.00000 0.00000 10.00000
v 9.98795 0.49068 10.00000
v 9.95185 0.98017 10.00000
v 9.89177 1.46730 10.00000
v 9.80785 1.95090 10.00000
v 9.70031 2.42980 10.00000
v 9.56940 2.90285 10.00000
v 9.41544 3.36890 10.00000
v 9.23880 3.82683 10.00000
v 9.03989 4.27555 10.00000
v 8.81921 4.71397 10.00000
v 8.57729 5.14103 10.00000
v 8.31470 5.55570 10.00000
v 8.03208 5.95699 10.00000
v 7.73010 6.34393 10.00000
v 7.40951 6.71559 10.00000
v 7.07107 7.07107 10.00000
v 6.71559 7.40951 10.00000
v 6.34393 7.73010 10.00000
v 5.95699 8.03208 10.00000
v 5.55570 8.31470 10.00000
v 5.14103 8.57729 10.00000
v 4.71397 8.81921 10.00000
v 4.27555 9.03989 10.00000
v 3.82683 9.23880 10.00000
v 3.36890 9.41544 10.00000
v 2.90285 9.56940 10.00000
v 2.42980 9.70031 10.00000
v 1.95090 9.80785 10.00000
v 1.46730 9.89177 10.00000
v 0.98017 9.95185 10.00000
v 0.49068 9.98795 10.00000
v 0.00000 10.00000 10.00000
v -0.49068 9.98795 10.00000
v -0.98017 9.95185 10.00000
v -1.46730 9.89177 10.00000
v -1.95090 9.80785 10.00000
v -2.42980 9.70031 10.00000
v -2.90285 9.56940 10.00000
v -3.36890 9.41544 10.00000
v -3.82683 9.23880 10.00000
v -4.27555 9.03989 10.00000
v -4.71397 8.81921 10.00000
v -5.14103 8.57729 10.00000
v -5.55570 8.31470 10.00000
v -5.95699 8.03208 10.00000
v -6.34393 7.73010 10.00000
v -6.71559 7.40951 10.00000
v -7.07107 7.07107 10.00000
v -7.40951 6.71559 10.00000
v -7.73010 6.34393 10.00000
v -8.03208 5.95699 10.00000
v -8.31470 5.55570 10.00000
v -8.57729 5.14103 10.00000
v -8.81921 4.71397 10.00000
v -9.03989 4.27555 10.00000
v -9.23880 3.82683 10.00000
v -9.41544 3.36890 10.00000
v -9.56940 2.90285 10.00000
v -9.70031 2.42980 10.00000
v -9.80785 1.95090 10.00000
v -9.89177 1.46730 10.00000
v -9.95185 0.98017 10.00000
v -9.98795 0.49068 10.00000
v -10.00000 0.00000 10.00000
v -9.98795 -0.49068 10.00000
v -9.95185 -0.98017 10.00000
v -9.89177 -1.46730 10.00000
v -9.80785 -1.95090 10.00000
v -9.70031 -2.42980 10.00000
v -9.56940 -2.90285 10.00000
v -9.41544 -3.36890 10.00000
v -9.23880 -3.82683 10.00000
v -9.03989 -4.27555 10.00000
v -8.81921 -4.71397 10.00000
v -8.57729 -5.14103 10.00000
v -8.31470 -5.55570 10.00000
v -8.03208 -5.95699 10.00000
v -7.73010 -6.34393 10.00000
v -7.40951 -6.71559 10.00000
v -7.07107 -7.07107 10.00000
v -6.71559 -7.40951 10.00000
v -6.34393 -7.73010 10.00000
v -5.95699 -8.03208 10.00000
v -5.55570 -8.31470 10.00000
v -5.14103 -8.57729 10.00000
v -4.71397 -8.81921 10.00000
v -4.27555 -9.03989 10.00000
v -3.82683 -9.23880 10.00000
v -3.36890 -9.41544 10.00000
v -2.90285 -9.56940 10.00000
v -2.42980 -9.70031 10.00000
v -1.95090 -9.80785 10.00000
v -1.46730 -9.89177 10.00000
v -0.98017 -9.95185 10.00000
v -0.49068 -9.98795 10.00000
v -0.00000 -10.00000 10.00000
v 0.49068 -9.98795 10.00000
v 0.98017 -9.95185 10.00000
v 1.46730 -9.89177 10.00000
v 1.95090 -9.80785 10.00000
v 2.42980 -9.70031 10.00000
v 2.90285 -9.56940 10.00000
v 3.36890 -9.41544 10.00000
v 3.82683 -9.23880 10.00000
v 4.27555 -9.03989 10.00000
v 4.71397 -8.81921 10.00000
v 5.14103 -8.57729 10.00000
v 5.55570 -8.31470 10.00000
v 5.95699 -8.03208 10.00000
v 6.34393 -7.73010 10.00000
v 6.71559 -7.40951 10.00000
v 7.07107 -7.07107 10.00000
v 7.40951 -6.71559 10.00000
v 7.73010 -6.34393 10.00000
v 8.03208 -5.95699 10.00000
v 8.31470 -5.55570 10.00000
v 8.57729 -5.14103 10.00000
v 8.81921 -4.71397 10.00000
v 9.03989 -4.27555 10.00000
v 9.23880 -3.82683 10.00000
v 9.41544 -3.36890 10.00000
v 9.56940 -2.90285 10.00000
v 9.70031 -2.42980 10.00000
v 9.80785 -1.95090 10.00000
v 9.89177 -1.46730 10.00000
v 9.95185 -0.98017 10.00000
v 9.98795 -0.49068 10.00000
v 10.00000 -0.00000 10.00000
l 296 297 298 299 300 301 302 303 304 305 306 307 308 309 310 311 312 313 314 315 316 317 318 319 320 321 322 323 324 325 326 327 328 329 330 331 332 333 334 335 336 337 338 339 340 341 342 343 344 345 346 347 348 349 350 351 352 353 354 355 356 357 358 359 360 361 362 363 364 365 366 367 368 369 370 371 372 373 374 375 376 377 378 379 380 381 382 383 384 385 386 387 388 389 390 391 392 393 394 395 396 397 398 399 400 401 402 403 404 405 406 407 408 409 410 411 412 413 414 415 416 417 418 419 420 421 422 423 424
