o Body
v 10.0 0.0 0.0
v 9.396926 3.420202 0.0
v 10.0 0.0 10.0
v 9.396926 3.420202 10.0
v 7.660444 6.427876 0.0
v 7.660444 6.427876 10.0
v 5.0 8.660254 10.0
v 5.0 8.660254 0.0
v 1.736482 9.848078 0.0
v 1.736482 9.848078 10.0
v -1.736482 9.848078 10.0
v -1.736482 9.848078 0.0
v -5.0 8.660254 0.0
v -5.0 8.660254 10.0
v -7.660444 6.427876 0.0
v -7.660444 6.427876 10.0
v -9.396926 3.420202 10.0
v -9.396926 3.420202 0.0
v -10.0 0.0 10.0
v -10.0 0.0 0.0
v -9.396926 -3.420202 0.0
v -9.396926 -3.420202 10.0
v -7.660444 -6.427876 0.0
v -7.660444 -6.427876 10.0
v -5.0 -8.660254 0.0
v -5.0 -8.660254 10.0
v -1.736482 -9.848078 0.0
v -1.736482 -9.848078 10.0
v 1.736482 -9.848078 0.0
v 1.736482 -9.848078 10.0
v 5.0 -8.660254 0.0
v 5.0 -8.660254 10.0
v 7.660444 -6.427876 10.0
v 7.660444 -6.427876 0.0
v 9.396926 -3.420202 0.0
v 9.396926 -3.420202 10.0
vn 0.9848077297210693 0.17364825308322906 -0.0
vn 0.9848077297210693 0.17364825308322906 0.0
vn 0.8660253882408142 0.5 0.0
vn 0.6427876949310303 0.7660443782806396 0.0
vn 0.8660253882408142 0.5 -0.0
vn 0.6427876949310303 0.7660443782806396 0.0
vn 0.34202006459236145 0.9396926760673523 0.0
vn 0.0 1.0 0.0
vn 0.34202006459236145 0.9396926760673523 -0.0
vn 0.0 1.0 0.0
vn -0.34202006459236145 0.9396926760673523 0.0
vn -0.34202006459236145 0.9396926760673523 0.0
vn -0.6427876949310303 0.7660443782806396 0.0
vn -0.8660253882408142 0.5 0.0
vn -0.6427876949310303 0.7660443782806396 0.0
vn -0.9848077297210693 0.17364825308322906 0.0
vn -0.8660253882408142 0.5 0.0
vn -0.9848077297210693 0.17364825308322906 0.0
vn -0.9848077297210693 -0.17364825308322906 0.0
vn -0.9848077297210693 -0.17364825308322906 0.0
vn -0.8660253882408142 -0.5 0.0
vn -0.8660253882408142 -0.5 0.0
vn -0.6427876949310303 -0.7660443782806396 0.0
vn -0.6427876949310303 -0.7660443782806396 0.0
vn -0.34202006459236145 -0.9396926760673523 0.0
vn -0.34202006459236145 -0.9396926760673523 0.0
vn 0.0 -1.0 0.0
vn 0.0 -1.0 0.0
vn 0.34202006459236145 -0.9396926760673523 0.0
vn 0.34202006459236145 -0.9396926760673523 0.0
vn 0.6427876949310303 -0.7660443782806396 0.0
vn 0.6427876949310303 -0.7660443782806396 0.0
vn 0.8660253882408142 -0.5 0.0
vn 0.8660253882408142 -0.5 0.0
vn 0.9848077297210693 -0.17364825308322906 0.0
vn 0.9848077297210693 -0.17364825308322906 0.0
vn 0.0 0.0 -1.0
vn 0.0 0.0 -1.0
vn 0.0 0.0 -1.0
vn 0.0 -0.0 -1.0
vn 0.0 0.0 -1.0
vn 0.0 -0.0 -1.0
vn 0.0 0.0 -1.0
vn 0.0 0.0 -1.0
vn 0.0 0.0 -1.0
vn 0.0 0.0 -1.0
vn 0.0 0.0 -1.0
vn -0.0 -0.0 -1.0
vn -0.0 -0.0 -1.0
vn 0.0 0.0 -1.0
vn 0.0 0.0 -1.0
vn 0.0 -0.0 -1.0
vn 0.0 0.0 1.0
vn 0.0 0.0 1.0
vn 0.0 0.0 1.0
vn 0.0 0.0 1.0
vn 0.0 0.0 1.0
vn 0.0 0.0 1.0
vn 0.0 0.0 1.0
vn 0.0 0.0 1.0
vn 0.0 0.0 1.0
vn 0.0 0.0 1.0
vn 0.0 0.0 1.0
vn 0.0 0.0 1.0
vn 0.0 0.0 1.0
vn 0.0 0.0 1.0
vn 0.0 0.0 1.0
vn 0.0 0.0 1.0
f 1//1 2//1 3//1
f 3//2 2//2 4//2
f 4//3 5//3 6//3
f 6//4 5//4 7//4
f 2//5 5//5 4//5
f 5//6 8//6 7//6
f 7//7 9//7 10//7
f 10//8 9//8 11//8
f 8//9 9//9 7//9
f 9//10 12//10 11//10
f 11//11 13//11 14//11
f 12//12 13//12 11//12
f 14//13 15//13 16//13
f 16//14 15//14 17//14
f 13//15 15//15 14//15
f 17//16 18//16 19//16
f 15//17 18//17 17//17
f 18//18 20//18 19//18
f 19//19 21//19 22//19
f 20//20 21//20 19//20
f 22//21 23//21 24//21
f 21//22 23//22 22//22
f 24//23 25//23 26//23
f 23//24 25//24 24//24
f 26//25 27//25 28//25
f 25//26 27//26 26//26
f 28//27 29//27 30//27
f 27//28 29//28 28//28
f 29//29 31//29 30//29
f 30//30 31//30 32//30
f 32//31 31//31 33//31
f 31//32 34//32 33//32
f 34//33 35//33 33//33
f 33//34 35//34 36//34
f 36//35 35//35 3//35
f 35//36 1//36 3//36
f 21//37 20//37 23//37
f 25//38 31//38 27//38
f 27//39 31//39 29//39
f 18//40 15//40 20//40
f 20//41 15//41 23//41
f 13//42 12//42 15//42
f 23//43 12//43 25//43
f 15//44 12//44 23//44
f 31//45 1//45 34//45
f 34//46 1//46 35//46
f 1//47 5//47 2//47
f 8//48 5//48 9//48
f 9//49 5//49 12//49
f 31//50 5//50 1//50
f 25//51 5//51 31//51
f 12//52 5//52 25//52
f 19//53 22//53 24//53
f 32//54 26//54 28//54
f 32//55 28//55 30//55
f 16//56 17//56 19//56
f 16//57 19//57 24//57
f 11//58 14//58 16//58
f 11//59 24//59 26//59
f 11//60 16//60 24//60
f 3//61 32//61 33//61
f 3//62 33//62 36//62
f 6//63 3//63 4//63
f 6//64 7//64 10//64
f 6//65 10//65 11//65
f 6//66 32//66 3//66
f 6//67 26//67 32//67
f 6//68 11//68 26//68
