o Cylinder
v 2.0 -0.0 10.0
v 2.0 -0.0 0.0
v 1.879385 0.68404 0.0
v 1.879385 0.68404 10.0
v 1.532089 1.285575 0.0
v 1.532089 1.285575 10.0
v 1.0 1.732051 10.0
v 1.0 1.732051 0.0
v 0.347296 1.969615 10.0
v 0.347296 1.969615 0.0
v -0.347296 1.969615 10.0
v -0.347296 1.969615 0.0
v -1.0 1.732051 10.0
v -1.0 1.732051 0.0
v -1.532089 1.285575 10.0
v -1.532089 1.285575 0.0
v -1.879385 0.68404 10.0
v -1.879385 0.68404 0.0
v -2.0 -0.0 10.0
v -2.0 -0.0 0.0
v -1.879385 -0.68404 10.0
v -1.879385 -0.68404 0.0
v -1.532089 -1.285575 0.0
v -1.532089 -1.285575 10.0
v -1.0 -1.732051 10.0
v -1.0 -1.732051 0.0
v -0.347296 -1.969615 0.0
v -0.347296 -1.969615 10.0
v 0.347296 -1.969615 0.0
v 0.347296 -1.969615 10.0
v 1.0 -1.732051 10.0
v 1.0 -1.732051 0.0
v 1.532089 -1.285575 0.0
v 1.532089 -1.285575 10.0
v 1.879385 -0.68404 10.0
v 1.879385 -0.68404 0.0
vn 0.9848077893257141 0.1736481934785843 0.0
vn 0.8660253882408142 0.5 0.0
vn 0.9848077893257141 0.1736481934785843 0.0
vn 0.8660253882408142 0.5 0.0
vn 0.642787516117096 0.7660444378852844 0.0
vn 0.642787516117096 0.7660444378852844 0.0
vn 0.3420201241970062 0.9396926760673523 0.0
vn 0.3420201241970062 0.9396926760673523 0.0
vn 0.0 1.0 0.0
vn -0.0 1.0 0.0
vn -0.3420201241970062 0.9396926760673523 0.0
vn -0.3420201241970062 0.9396926760673523 0.0
vn -0.642787516117096 0.7660444378852844 0.0
vn -0.642787516117096 0.7660444378852844 0.0
vn -0.8660253882408142 0.5 0.0
vn -0.8660253882408142 0.5 0.0
vn -0.9848077893257141 0.1736481934785843 0.0
vn -0.9848077893257141 0.1736481934785843 0.0
vn -0.9848077893257141 -0.1736481934785843 -0.0
vn -0.8660253882408142 -0.5 -0.0
vn -0.9848077893257141 -0.1736481934785843 0.0
vn -0.8660253882408142 -0.5 -0.0
vn -0.642787516117096 -0.7660444378852844 -0.0
vn -0.3420201241970062 -0.9396926760673523 -0.0
vn -0.642787516117096 -0.7660444378852844 0.0
vn 0.0 -1.0 0.0
vn -0.3420201241970062 -0.9396926760673523 -0.0
vn -0.0 -1.0 -0.0
vn 0.3420201241970062 -0.9396926760673523 0.0
vn 0.3420201241970062 -0.9396926760673523 0.0
vn 0.642787516117096 -0.7660444378852844 0.0
vn 0.642787516117096 -0.7660444378852844 0.0
vn 0.8660253882408142 -0.5 0.0
vn 0.8660253882408142 -0.5 0.0
vn 0.9848077893257141 -0.1736481934785843 0.0
vn 0.9848077893257141 -0.1736481934785843 0.0
vn 0.0 0.0 1.0
vn 0.0 0.0 1.0
vn 0.0 0.0 1.0
vn 0.0 0.0 1.0
vn 0.0 0.0 1.0
vn 0.0 0.0 1.0
vn 0.0 0.0 1.0
vn 0.0 0.0 1.0
vn 0.0 0.0 1.0
vn 0.0 0.0 1.0
vn 0.0 0.0 1.0
vn 0.0 0.0 1.0
vn 0.0 0.0 1.0
vn 0.0 0.0 1.0
vn 0.0 0.0 1.0
vn 0.0 0.0 1.0
vn 0.0 0.0 -1.0
vn 0.0 0.0 -1.0
vn 0.0 0.0 -1.0
vn 0.0 0.0 -1.0
vn 0.0 0.0 -1.0
vn 0.0 -0.0 -1.0
vn 0.0 0.0 -1.0
vn 0.0 -0.0 -1.0
vn 0.0 0.0 -1.0
vn -0.0 -0.0 -1.0
vn 0.0 -0.0 -1.0
vn 0.0 0.0 -1.0
vn 0.0 0.0 -1.0
vn 0.0 -0.0 -1.0
vn 0.0 0.0 -1.0
vn 0.0 -0.0 -1.0
f 1//1 2//1 3//1
f 4//2 3//2 5//2
f 4//3 1//3 3//3
f 6//4 4//4 5//4
f 7//5 5//5 8//5
f 7//6 6//6 5//6
f 9//7 8//7 10//7
f 9//8 7//8 8//8
f 11//9 10//9 12//9
f 11//10 9//10 10//10
f 13//11 12//11 14//11
f 13//12 11//12 12//12
f 15//13 14//13 16//13
f 15//14 13//14 14//14
f 17//15 16//15 18//15
f 17//16 15//16 16//16
f 19//17 18//17 20//17
f 19//18 17//18 18//18
f 21//19 20//19 22//19
f 21//20 22//20 23//20
f 21//21 19//21 20//21
f 24//22 21//22 23//22
f 25//23 23//23 26//23
f 25//24 26//24 27//24
f 25//25 24//25 23//25
f 28//26 27//26 29//26
f 28//27 25//27 27//27
f 30//28 28//28 29//28
f 31//29 30//29 29//29
f 31//30 29//30 32//30
f 31//31 32//31 33//31
f 34//32 31//32 33//32
f 35//33 34//33 33//33
f 35//34 33//34 36//34
f 1//35 35//35 36//35
f 1//36 36//36 2//36
f 34//37 21//37 24//37
f 34//38 24//38 25//38
f 34//39 25//39 28//39
f 34//40 28//40 30//40
f 34//41 30//41 31//41
f 13//42 15//42 17//42
f 1//43 34//43 35//43
f 9//44 11//44 13//44
f 6//45 1//45 4//45
f 6//46 7//46 9//46
f 6//47 17//47 19//47
f 6//48 19//48 21//48
f 6//49 21//49 34//49
f 6//50 13//50 17//50
f 6//51 34//51 1//51
f 6//52 9//52 13//52
f 22//53 33//53 23//53
f 23//54 33//54 26//54
f 26//55 33//55 27//55
f 27//56 33//56 29//56
f 29//57 33//57 32//57
f 16//58 14//58 18//58
f 33//59 2//59 36//59
f 12//60 10//60 14//60
f 2//61 5//61 3//61
f 8//62 5//62 10//62
f 18//63 5//63 20//63
f 20//64 5//64 22//64
f 22//65 5//65 33//65
f 14//66 5//66 18//66
f 33//67 5//67 2//67
f 10//68 5//68 14//68
o CylinderWire0
v 2.00000 -0.00000 0.00000
v 2.00000 -0.00000 10.00000
v 1.99037 -0.19603 10.00000
v 1.96157 -0.39018 10.00000
v 1.91388 -0.58057 10.00000
v 1.84776 -0.76537 10.00000
v 1.76384 -0.94279 10.00000
v 1.66294 -1.11114 10.00000
v 1.54602 -1.26879 10.00000
v 1.41421 -1.41421 10.00000
v 1.26879 -1.54602 10.00000
v 1.11114 -1.66294 10.00000
v 0.94279 -1.76384 10.00000
v 0.76537 -1.84776 10.00000
v 0.58057 -1.91388 10.00000
v 0.39018 -1.96157 10.00000
v 0.19603 -1.99037 10.00000
v -0.00000 -2.00000 10.00000
v -0.19603 -1.99037 10.00000
v -0.39018 -1.96157 10.00000
v -0.58057 -1.91388 10.00000
v -0.76537 -1.84776 10.00000
v -0.94279 -1.76384 10.00000
v -1.11114 -1.66294 10.00000
v -1.26879 -1.54602 10.00000
v -1.41421 -1.41421 10.00000
v -1.54602 -1.26879 10.00000
v -1.66294 -1.11114 10.00000
v -1.76384 -0.94279 10.00000
v -1.84776 -0.76537 10.00000
v -1.91388 -0.58057 10.00000
v -1.96157 -0.39018 10.00000
v -1.99037 -0.19603 10.00000
v -2.00000 0.00000 10.00000
v -1.99037 0.19603 10.00000
v -1.96157 0.39018 10.00000
v -1.91388 0.58057 10.00000
v -1.84776 0.76537 10.00000
v -1.76384 0.94279 10.00000
v -1.66294 1.11114 10.00000
v -1.54602 1.26879 10.00000
v -1.41421 1.41421 10.00000
v -1.26879 1.54602 10.00000
v -1.11114 1.66294 10.00000
v -0.94279 1.76384 10.00000
v -0.76537 1.84776 10.00000
v -0.58057 1.91388 10.00000
v -0.39018 1.96157 10.00000
v -0.19603 1.99037 10.00000
v 0.00000 2.00000 10.00000
v 0.19603 1.99037 10.00000
v 0.39018 1.96157 10.00000
v 0.58057 1.91388 10.00000
v 0.76537 1.84776 10.00000
v 0.94279 1.76384 10.00000
v 1.11114 1.66294 10.00000
v 1.26879 1.54602 10.00000
v 1.41421 1.41421 10.00000
v 1.54602 1.26879 10.00000
v 1.66294 1.11114 10.00000
v 1.76384 0.94279 10.00000
v 1.84776 0.76537 10.00000
v 1.91388 0.58057 10.00000
v 1.96157 0.39018 10.00000
v 1.99037 0.19603 10.00000
v 2.00000 0.00000 10.00000
l 37 38 39 40 41 42 43 44 45 46 47 48 49 50 51 52 53 54 55 56 57 58 59 60 61 62 63 64 65 66 67 68 69 70 71 72 73 74 75 76 77 78 79 80 81 82 83 84 85 86 87 88 89 90 91 92 93 94 95 96 97 98 99 100 101 102
o CylinderWire1
v 2.00000 0.00000 10.00000
v 1.99037 0.19603 10.00000
v 1.96157 0.39018 10.00000
v 1.91388 0.58057 10.00000
v 1.84776 0.76537 10.00000
v 1.76384 0.94279 10.00000
v 1.66294 1.11114 10.00000
v 1.54602 1.26879 10.00000
v 1.41421 1.41421 10.00000
v 1.26879 1.54602 10.00000
v 1.11114 1.66294 10.00000
v 0.94279 1.76384 10.00000
v 0.76537 1.84776 10.00000
v 0.58057 1.91388 10.00000
v 0.39018 1.96157 10.00000
v 0.19603 1.99037 10.00000
v 0.00000 2.00000 10.00000
v -0.19603 1.99037 10.00000
v -0.39018 1.96157 10.00000
v -0.58057 1.91388 10.00000
v -0.76537 1.84776 10.00000
v -0.94279 1.76384 10.00000
v -1.11114 1.66294 10.00000
v -1.26879 1.54602 10.00000
v -1.41421 1.41421 10.00000
v -1.54602 1.26879 10.00000
v -1.66294 1.11114 10.00000
v -1.76384 0.94279 10.00000
v -1.84776 0.76537 10.00000
v -1.91388 0.58057 10.00000
v -1.96157 0.39018 10.00000
v -1.99037 0.19603 10.00000
v -2.00000 0.00000 10.00000
v -1.99037 -0.19603 10.00000
v -1.96157 -0.39018 10.00000
v -1.91388 -0.58057 10.00000
v -1.84776 -0.76537 10.00000
v -1.76384 -0.94279 10.00000
v -1.66294 -1.11114 10.00000
v -1.54602 -1.26879 10.00000
v -1.41421 -1.41421 10.00000
v -1.26879 -1.54602 10.00000
v -1.11114 -1.66294 10.00000
v -0.94279 -1.76384 10.00000
v -0.76537 -1.84776 10.00000
v -0.58057 -1.91388 10.00000
v -0.39018 -1.96157 10.00000
v -0.19603 -1.99037 10.00000
v -0.00000 -2.00000 10.00000
v 0.19603 -1.99037 10.00000
v 0.39018 -1.96157 10.00000
v 0.58057 -1.91388 10.00000
v 0.76537 -1.84776 10.00000
v 0.94279 -1.76384 10.00000
v 1.11114 -1.66294 10.00000
v 1.26879 -1.54602 10.00000
v 1.41421 -1.41421 10.00000
v 1.54602 -1.26879 10.00000
v 1.66294 -1.11114 10.00000
v 1.76384 -0.94279 10.00000
v 1.84776 -0.76537 10.00000
v 1.91388 -0.58057 10.00000
v 1.96157 -0.39018 10.00000
v 1.99037 -0.19603 10.00000
v 2.00000 -0.00000 10.00000
l 103 104 105 106 107 108 109 110 111 112 113 114 115 116 117 118 119 120 121 122 123 124 125 126 127 128 129 130 131 132 133 134 135 136 137 138 139 140 141 142 143 144 145 146 147 148 149 150 151 152 153 154 155 156 157 158 159 160 161 162 163 164 165 166 167
o CylinderWire2
v 2.00000 -0.00000 0.00000
v 1.99037 -0.19603 0.00000
v 1.96157 -0.39018 0.00000
v 1.91388 -0.58057 0.00000
v 1.84776 -0.76537 0.00000
v 1.76384 -0.94279 0.00000
v 1.66294 -1.11114 0.00000
v 1.54602 -1.26879 0.00000
v 1.41421 -1.41421 0.00000
v 1.26879 -1.54602 0.00000
v 1.11114 -1.66294 0.00000
v 0.94279 -1.76384 0.00000
v 0.76537 -1.84776 0.00000
v 0.58057 -1.91388 0.00000
v 0.39018 -1.96157 0.00000
v 0.19603 -1.99037 0.00000
v -0.00000 -2.00000 0.00000
v -0.19603 -1.99037 0.00000
v -0.39018 -1.96157 0.00000
v -0.58057 -1.91388 0.00000
v -0.76537 -1.84776 0.00000
v -0.94279 -1.76384 0.00000
v -1.11114 -1.66294 0.00000
v -1.26879 -1.54602 0.00000
v -1.41421 -1.41421 0.00000
v -1.54602 -1.26879 0.00000
v -1.66294 -1.11114 0.00000
v -1.76384 -0.94279 0.00000
v -1.84776 -0.76537 0.00000
v -1.91388 -0.58057 0.00000
v -1.96157 -0.39018 0.00000
v -1.99037 -0.19603 0.00000
v -2.00000 0.00000 0.00000
v -1.99037 0.19603 0.00000
v -1.96157 0.39018 0.00000
v -1.91388 0.58057 0.00000
v -1.84776 0.76537 0.00000
v -1.76384 0.94279 0.00000
v -1.66294 1.11114 0.00000
v -1.54602 1.26879 0.00000
v -1.41421 1.41421 0.00000
v -1.26879 1.54602 0.00000
v -1.11114 1.66294 0.00000
v -0.94279 1.76384 0.00000
v -0.76537 1.84776 0.00000
v -0.58057 1.91388 0.00000
v -0.39018 1.96157 0.00000
v -0.19603 1.99037 0.00000
v 0.00000 2.00000 0.00000
v 0.19603 1.99037 0.00000
v 0.39018 1.96157 0.00000
v 0.58057 1.91388 0.00000
v 0.76537 1.84776 0.00000
v 0.94279 1.76384 0.00000
v 1.11114 1.66294 0.00000
v 1.26879 1.54602 0.00000
v 1.41421 1.41421 0.00000
v 1.54602 1.26879 0.00000
v 1.66294 1.11114 0.00000
v 1.76384 0.94279 0.00000
v 1.84776 0.76537 0.00000
v 1.91388 0.58057 0.00000
v 1.96157 0.39018 0.00000
v 1.99037 0.19603 0.00000
v 2.00000 0.00000 0.00000
l 168 169 170 171 172 173 174 175 176 177 178 179 180 181 182 183 184 185 186 187 188 189 190 191 192 193 194 195 196 197 198 199 200 201 202 203 204 205 206 207 208 209 210 211 212 213 214 215 216 217 218 219 220 221 222 223 224 225 226 227 228 229 230 231 232
