o Sphere
v 12.10638 0.519176 -4.504844
v 13.213938 -0.0 -3.830222
v 11.710101 -0.0 -4.698463
v 11.623834 1.438591 -4.504844
v 10.0 -0.0 -5.0
v 10.769286 2.028442 -4.504844
v 9.738505 2.153601 -4.504844
v 13.461387 1.816676 -3.117449
v 14.330127 -0.0 -2.5
v 8.76763 1.785397 -4.504844
v 12.220654 3.217174 -3.117449
v 8.079075 1.008179 -4.504844
v 10.471197 3.880655 -3.117449
v 14.732991 1.166578 -1.112605
v 14.924039 -0.0 -0.868241
v 7.830581 0.0 -4.504844
v 8.613793 3.655126 -3.117449
v 13.64872 3.232484 -1.112605
v 8.079075 -1.008179 -4.504844
v 7.073954 2.592251 -3.117449
v 11.728571 4.557867 -1.112605
v 8.76763 -1.785397 -4.504844
v 6.204436 0.935523 -3.117449
v 9.412427 4.839098 -1.112605
v 14.316279 2.265358 1.112605
v 14.924039 -0.0 0.868241
v 14.330127 -0.0 2.5
v 9.738505 -2.153601 -4.504844
v 6.204436 -0.935523 -3.117449
v 7.230889 4.01175 -1.112605
v 12.769111 4.01175 1.112605
v 10.769286 -2.028442 -4.504844
v 7.073954 -2.592251 -3.117449
v 5.683721 2.265358 -1.112605
v 10.587573 4.839098 1.112605
v 11.623834 -1.438591 -4.504844
v 13.795565 0.935523 3.117449
v 13.213938 -0.0 3.830222
v 8.613793 -3.655126 -3.117449
v 5.12536 0.0 -1.112605
v 8.271429 4.557867 1.112605
v 12.10638 -0.519176 -4.504844
v 12.926046 2.592251 3.117449
v 10.471197 -3.880655 -3.117449
v 5.683721 -2.265358 -1.112605
v 6.35128 3.232484 1.112605
v 11.386207 3.655126 3.117449
v 12.220654 -3.217174 -3.117449
v 7.230889 -4.01175 -1.112605
v 5.267009 1.166578 1.112605
v 9.528803 3.880655 3.117449
v 13.461387 -1.816676 -3.117449
v 11.920925 1.008179 4.504844
v 11.710101 -0.0 4.698463
v 10.0 -0.0 5.0
v 9.412427 -4.839098 -1.112605
v 5.267009 -1.166578 1.112605
v 7.779346 3.217174 3.117449
v 11.23237 1.785397 4.504844
v 11.728571 -4.557867 -1.112605
v 6.35128 -3.232484 1.112605
v 6.538613 1.816676 3.117449
v 10.261495 2.153601 4.504844
v 13.64872 -3.232484 -1.112605
v 8.271429 -4.557867 1.112605
v 6.090843 0.0 3.117449
v 9.230714 2.028442 4.504844
v 14.732991 -1.166578 -1.112605
v 10.587573 -4.839098 1.112605
v 6.538613 -1.816676 3.117449
v 8.376166 1.438591 4.504844
v 12.769111 -4.01175 1.112605
v 7.779346 -3.217174 3.117449
v 7.89362 0.519176 4.504844
v 14.316279 -2.265358 1.112605
v 9.528803 -3.880655 3.117449
v 7.89362 -0.519176 4.504844
v 11.386207 -3.655126 3.117449
v 8.376166 -1.438591 4.504844
v 12.926046 -2.592251 3.117449
v 9.230714 -2.028442 4.504844
v 13.795565 -0.935523 3.117449
v 10.261495 -2.153601 4.504844
v 11.23237 -1.785397 4.504844
v 11.920925 -1.008179 4.504844
vn 0.49914178252220154 -0.05857011675834656 -0.8645386099815369
vn 0.17190054059028625 0.14151881635189056 -0.9748961925506592
vn 0.2751815617084503 0.1444263458251953 -0.9504820704460144
vn 0.5967938303947449 0.31322139501571655 -0.738735020160675
vn 0.12999394536018372 0.18832890689373016 -0.973464846611023
vn 0.02758321911096573 0.22716814279556274 -0.973464846611023
vn 0.7578059434890747 0.14626501500606537 -0.6358748078346252
vn 0.5536647439002991 0.2377159297466278 -0.7980892658233643
vn -0.08114659041166306 0.2139659821987152 -0.973464846611023
vn 0.34645578265190125 0.5019283294677734 -0.792487382888794
vn 0.4858223795890808 0.43040093779563904 -0.7607441544532776
vn -0.1712866574525833 0.15174679458141327 -0.973464846611023
vn 0.0735139548778534 0.6054415106773376 -0.7924874424934387
vn 0.23015692830085754 0.6068738698959351 -0.7607442736625671
vn 0.9365301728248596 0.08197125047445297 -0.34086933732032776
vn -0.22218705713748932 0.054764147847890854 -0.973464846611023
vn -0.21626931428909302 0.5702553987503052 -0.7924874424934387
vn -0.07823455333709717 0.644319474697113 -0.7607442140579224
vn 0.8942444324493408 0.3219551146030426 -0.31092098355293274
vn 0.6591048240661621 0.5839157700538635 -0.4739443063735962
vn 0.7431266903877258 0.39002305269241333 -0.5437321662902832
vn -0.22218705713748932 -0.054764147847890854 -0.973464846611023
vn -0.45650792121887207 0.40443089604377747 -0.792487382888794
vn -0.3687035143375397 0.5341591238975525 -0.7607442140579224
vn 0.3122490644454956 0.8233330845832825 -0.4739443063735962
vn 0.5254328846931458 0.7612208724021912 -0.3800828456878662
vn -0.1712866574525833 -0.15174679458141327 -0.973464846611023
vn -0.5747069716453552 0.30162936449050903 -0.7607441544532776
vn -0.5921661257743835 0.14595575630664825 -0.7924873232841492
vn -0.1061391606926918 0.8741345405578613 -0.47394442558288574
vn 0.11149074137210846 0.9182085394859314 -0.3800829350948334
vn 0.965844988822937 0.25912079215049744 0.0
vn 0.9186590909957886 0.2103937715291977 0.33436480164527893
vn 0.8836674094200134 0.46378451585769653 -0.06352781504392624
vn 0.9791027307510376 0.18012213706970215 0.094413161277771
vn -0.08114659041166306 -0.2139659821987152 -0.973464846611023
vn -0.5921661257743835 -0.14595575630664825 -0.7924873232841492
vn -0.6490519046783447 0.0 -0.7607441544532776
vn -0.5002122521400452 0.7246823906898499 -0.47394436597824097
vn -0.327992707490921 0.8648455142974854 -0.38008299469947815
vn 0.566917359828949 0.821321427822113 -0.06352757662534714
vn 0.7469987273216248 0.6617833375930786 0.06352735310792923
vn 0.027583222836256027 -0.22716815769672394 -0.973464846611023
vn -0.5747069716453552 -0.3016293942928314 -0.7607441544532776
vn -0.45650792121887207 -0.40443089604377747 -0.792487382888794
vn -0.6923367977142334 0.6133569478988647 -0.38008296489715576
vn -0.7796925902366638 0.4092141091823578 -0.47394442558288574
vn 0.3538886606693268 0.9331275224685669 0.06352744996547699
vn 0.12029325217008591 0.9907036423683167 -0.06352757662534714
vn 0.17190054059028625 -0.14151881635189056 -0.9748961925506592
vn 0.1299939602613449 -0.18832892179489136 -0.973464846611023
vn 0.7659748196601868 0.013477549888193607 0.6427292227745056
vn -0.3687035143375397 -0.5341591238975525 -0.7607442140579224
vn -0.21626931428909302 -0.5702553987503052 -0.7924874424934387
vn -0.880554735660553 0.0 -0.4739444851875305
vn -0.8980749845504761 0.221355602145195 -0.3800830543041229
vn -0.3538886308670044 0.9331275224685669 -0.06352745741605759
vn -0.12029325217008591 0.9907036423683167 0.06352756917476654
vn 0.5967938303947449 -0.31322139501571655 -0.738735020160675
vn 0.49914178252220154 0.05857011675834656 -0.8645386099815369
vn 0.2751815915107727 -0.1444263607263565 -0.9504820704460144
vn 0.5314883589744568 0.2789466381072998 0.7998180985450745
vn 0.6923366785049438 0.6133570671081543 0.38008302450180054
vn 0.8032764792442322 0.3146332800388336 0.5057200789451599
vn 0.8837332725524902 0.46381911635398865 0.06234864890575409
vn -0.07823455333709717 -0.644319474697113 -0.7607442140579224
vn 0.0735139548778534 -0.6054415106773376 -0.7924874424934387
vn -0.8980749845504761 -0.221355602145195 -0.3800830543041229
vn -0.7796925902366638 -0.4092141091823578 -0.47394442558288574
vn -0.5669172406196594 0.8213215470314026 0.06352751702070236
vn -0.7469987869262695 0.6617832183837891 -0.06352760642766953
vn 0.5002122521400452 0.7246823906898499 0.47394436597824097
vn 0.327992707490921 0.8648455142974854 0.38008296489715576
vn 0.23015692830085754 -0.6068738698959351 -0.7607442736625671
vn 0.34645578265190125 -0.5019283294677734 -0.792487382888794
vn -0.6923367977142334 -0.6133569478988647 -0.38008296489715576
vn -0.5002122521400452 -0.7246823906898499 -0.47394436597824097
vn -0.968980610370636 0.2388322502374649 -0.06352747231721878
vn -0.8836674690246582 0.4637843668460846 0.06352751702070236
vn -0.11149073392152786 0.9182085394859314 0.380082905292511
vn 0.1061391532421112 0.8741344809532166 0.47394436597824097
vn 0.5536647439002991 -0.2377159297466278 -0.7980892658233643
vn 0.4858224093914032 -0.4304009675979614 -0.7607441544532776
vn 0.7578059434890747 -0.14626501500606537 -0.6358748078346252
vn 0.49904921650886536 0.06164410337805748 0.8643782734870911
vn 0.17165540158748627 0.15106436610221863 0.973505973815918
vn 0.6036675572395325 0.27299991250038147 0.7490371465682983
vn -0.1061391606926918 -0.8741345405578613 -0.47394442558288574
vn -0.327992707490921 -0.8648455142974854 -0.38008299469947815
vn -0.968980610370636 -0.2388322502374649 -0.06352747231721878
vn -0.9979801177978516 0.0 0.06352758407592773
vn -0.525432825088501 0.7612209320068359 0.380082905292511
vn -0.3122490644454956 0.8233330249786377 0.4739443063735962
vn 0.1712866574525833 0.15174679458141327 0.973464846611023
vn 0.3687034845352173 0.5341591238975525 0.7607441544532776
vn 0.4565078914165497 0.4044308364391327 0.792487382888794
vn 0.11149074137210846 -0.9182085394859314 -0.3800829350948334
vn 0.3122490644454956 -0.8233330845832825 -0.4739443063735962
vn -0.8836674690246582 -0.4637843668460846 0.06352753192186356
vn -0.7469987869262695 -0.6617832183837891 -0.06352760642766953
vn -0.8190047740936279 0.42984676361083984 0.3800828754901886
vn -0.6591047644615173 0.5839158892631531 0.47394442558288574
vn 0.07823452353477478 0.644319474697113 0.7607442140579224
vn 0.08114659041166306 0.2139659821987152 0.973464846611023
vn 0.2162693440914154 0.57025545835495 0.7924874424934387
vn 0.6591048240661621 -0.5839157700538635 -0.4739443063735962
vn 0.8942444324493408 -0.3219551146030426 -0.31092098355293274
vn 0.5254328846931458 -0.7612208724021912 -0.3800828456878662
vn -0.3538886308670044 -0.9331275224685669 -0.06352745741605759
vn -0.5669172406196594 -0.8213215470314026 0.06352751702070236
vn -0.9249523878097534 0.0 0.3800829350948334
vn -0.854967474937439 0.2107304185628891 0.4739443063735962
vn -0.23015695810317993 0.6068739295005798 0.7607442140579224
vn -0.0735139399766922 0.6054415106773376 0.7924874424934387
vn -0.027583222836256027 0.22716815769672394 0.973464846611023
vn 0.9365301728248596 -0.08197125047445297 -0.34086933732032776
vn 0.7431266903877258 -0.39002305269241333 -0.5437321662902832
vn 0.12029325217008591 -0.9907036423683167 -0.06352757662534714
vn -0.12029325217008591 -0.9907036423683167 0.06352757662534714
vn -0.854967474937439 -0.2107304185628891 0.47394436597824097
vn -0.8190047740936279 -0.42984676361083984 0.3800828754901886
vn -0.34645581245422363 0.5019283294677734 0.7924874424934387
vn -0.1299939602613449 0.18832892179489136 0.973464846611023
vn -0.48582226037979126 0.4304009974002838 0.7607442140579224
vn 0.3538886606693268 -0.9331275224685669 0.06352746486663818
vn 0.566917359828949 -0.821321427822113 -0.06352757662534714
vn -0.6591047644615173 -0.5839158892631531 0.47394442558288574
vn -0.525432825088501 -0.7612209320068359 0.380082905292511
vn -0.6301916241645813 0.1553281992673874 0.7607441544532776
vn -0.20262478291988373 0.10634563118219376 0.973464846611023
vn -0.5400293469429016 0.2834290862083435 0.792487382888794
vn 0.9791027307510376 -0.18012213706970215 0.094413161277771
vn 0.8836674094200134 -0.46378451585769653 -0.06352781504392624
vn 0.965844988822937 -0.25912079215049744 0.0
vn 0.9186590909957886 -0.2103937715291977 0.33436480164527893
vn 0.7469987273216248 -0.6617833375930786 0.06352735310792923
vn -0.11149073392152786 -0.9182085394859314 0.380082905292511
vn -0.3122490644454956 -0.8233330249786377 0.4739443063735962
vn -0.6301916241645813 -0.1553281992673874 0.7607441544532776
vn -0.22883662581443787 0.0 0.973464846611023
vn -0.6098883152008057 0.0 0.792487382888794
vn 0.327992707490921 -0.8648455142974854 0.38008296489715576
vn 0.1061391532421112 -0.8741344809532166 0.47394442558288574
vn -0.48582226037979126 -0.4304009974002838 0.7607442140579224
vn -0.5400293469429016 -0.2834290862083435 0.792487382888794
vn -0.20262478291988373 -0.10634563118219376 0.973464846611023
vn 0.8032764792442322 -0.3146332800388336 0.5057200789451599
vn 0.6923366785049438 -0.6133570671081543 0.38008302450180054
vn 0.5002122521400452 -0.7246823906898499 0.47394436597824097
vn -0.23015695810317993 -0.6068739295005798 0.7607442140579224
vn -0.34645581245422363 -0.5019283294677734 0.792487382888794
vn -0.12999394536018372 -0.18832890689373016 0.973464846611023
vn 0.5314883589744568 -0.2789466381072998 0.7998180985450745
vn 0.7659748196601868 -0.013477549888193607 0.6427292227745056
vn 0.8837332725524902 -0.46381911635398865 0.06234854459762573
vn -0.02758321911096573 -0.22716814279556274 0.973464846611023
vn 0.07823452353477478 -0.644319474697113 0.7607442140579224
vn -0.0735139399766922 -0.6054415106773376 0.7924874424934387
vn 0.3687034845352173 -0.5341591238975525 0.7607441544532776
vn 0.08114659041166306 -0.2139659821987152 0.973464846611023
vn 0.2162693440914154 -0.57025545835495 0.7924874424934387
vn 0.6036675572395325 -0.27299991250038147 0.7490371465682983
vn 0.49904921650886536 -0.06164410337805748 0.8643782734870911
vn 0.17165540158748627 -0.15106436610221863 0.973505973815918
vn 0.4565078914165497 -0.4044308364391327 0.792487382888794
vn 0.1712866574525833 -0.15174679458141327 0.973464846611023
f 1//1 2//1 3//1
f 4//2 3//2 5//2
f 4//3 1//3 3//3
f 4//4 2//4 1//4
f 6//5 4//5 5//5
f 7//6 6//6 5//6
f 8//7 9//7 2//7
f 8//8 2//8 4//8
f 10//9 7//9 5//9
f 11//10 4//10 6//10
f 11//11 8//11 4//11
f 12//12 10//12 5//12
f 13//13 6//13 7//13
f 13//14 11//14 6//14
f 14//15 15//15 9//15
f 16//16 12//16 5//16
f 17//17 7//17 10//17
f 17//18 13//18 7//18
f 18//19 9//19 8//19
f 18//20 8//20 11//20
f 18//21 14//21 9//21
f 19//22 16//22 5//22
f 20//23 10//23 12//23
f 20//24 17//24 10//24
f 21//25 11//25 13//25
f 21//26 18//26 11//26
f 22//27 19//27 5//27
f 23//28 20//28 12//28
f 23//29 12//29 16//29
f 24//30 13//30 17//30
f 24//31 21//31 13//31
f 25//32 26//32 15//32
f 25//33 27//33 26//33
f 25//34 14//34 18//34
f 25//35 15//35 14//35
f 28//36 22//36 5//36
f 29//37 16//37 19//37
f 29//38 23//38 16//38
f 30//39 17//39 20//39
f 30//40 24//40 17//40
f 31//41 18//41 21//41
f 31//42 25//42 18//42
f 32//43 28//43 5//43
f 33//44 29//44 19//44
f 33//45 19//45 22//45
f 34//46 30//46 20//46
f 34//47 20//47 23//47
f 35//48 31//48 21//48
f 35//49 21//49 24//49
f 36//50 5//50 3//50
f 36//51 32//51 5//51
f 37//52 38//52 27//52
f 39//53 33//53 22//53
f 39//54 22//54 28//54
f 40//55 23//55 29//55
f 40//56 34//56 23//56
f 41//57 24//57 30//57
f 41//58 35//58 24//58
f 42//59 2//59 36//59
f 42//60 3//60 2//60
f 42//61 36//61 3//61
f 43//62 38//62 37//62
f 43//63 25//63 31//63
f 43//64 27//64 25//64
f 43//65 37//65 27//65
f 44//66 39//66 28//66
f 44//67 28//67 32//67
f 45//68 40//68 29//68
f 45//69 29//69 33//69
f 46//70 41//70 30//70
f 46//71 30//71 34//71
f 47//72 43//72 31//72
f 47//73 31//73 35//73
f 48//74 44//74 32//74
f 48//75 32//75 36//75
f 49//76 45//76 33//76
f 49//77 33//77 39//77
f 50//78 34//78 40//78
f 50//79 46//79 34//79
f 51//80 35//80 41//80
f 51//81 47//81 35//81
f 52//82 36//82 2//82
f 52//83 48//83 36//83
f 52//84 2//84 9//84
f 53//85 54//85 38//85
f 53//86 55//86 54//86
f 53//87 38//87 43//87
f 56//88 39//88 44//88
f 56//89 49//89 39//89
f 57//90 40//90 45//90
f 57//91 50//91 40//91
f 58//92 41//92 46//92
f 58//93 51//93 41//93
f 59//94 55//94 53//94
f 59//95 43//95 47//95
f 59//96 53//96 43//96
f 60//97 56//97 44//97
f 60//98 44//98 48//98
f 61//99 57//99 45//99
f 61//100 45//100 49//100
f 62//101 46//101 50//101
f 62//102 58//102 46//102
f 63//103 47//103 51//103
f 63//104 55//104 59//104
f 63//105 59//105 47//105
f 64//106 48//106 52//106
f 64//107 52//107 9//107
f 64//108 60//108 48//108
f 65//109 49//109 56//109
f 65//110 61//110 49//110
f 66//111 50//111 57//111
f 66//112 62//112 50//112
f 67//113 51//113 58//113
f 67//114 63//114 51//114
f 67//115 55//115 63//115
f 68//116 9//116 15//116
f 68//117 64//117 9//117
f 69//118 56//118 60//118
f 69//119 65//119 56//119
f 70//120 66//120 57//120
f 70//121 57//121 61//121
f 71//122 67//122 58//122
f 71//123 55//123 67//123
f 71//124 58//124 62//124
f 72//125 69//125 60//125
f 72//126 60//126 64//126
f 73//127 70//127 61//127
f 73//128 61//128 65//128
f 74//129 62//129 66//129
f 74//130 55//130 71//130
f 74//131 71//131 62//131
f 75//132 68//132 15//132
f 75//133 64//133 68//133
f 75//134 15//134 26//134
f 75//135 26//135 27//135
f 75//136 72//136 64//136
f 76//137 65//137 69//137
f 76//138 73//138 65//138
f 77//139 66//139 70//139
f 77//140 55//140 74//140
f 77//141 74//141 66//141
f 78//142 69//142 72//142
f 78//143 76//143 69//143
f 79//144 70//144 73//144
f 79//145 77//145 70//145
f 79//146 55//146 77//146
f 80//147 75//147 27//147
f 80//148 72//148 75//148
f 80//149 78//149 72//149
f 81//150 73//150 76//150
f 81//151 79//151 73//151
f 81//152 55//152 79//152
f 82//153 38//153 80//153
f 82//154 27//154 38//154
f 82//155 80//155 27//155
f 83//156 55//156 81//156
f 83//157 76//157 78//157
f 83//158 81//158 76//158
f 84//159 78//159 80//159
f 84//160 55//160 83//160
f 84//161 83//161 78//161
f 85//162 80//162 38//162
f 85//163 38//163 54//163
f 85//164 54//164 55//164
f 85//165 84//165 80//165
f 85//166 55//166 84//166
o SphereWire0
v 10.00000 0.00000 -5.00000
v 10.24534 -0.00000 -4.99398
v 10.49009 -0.00000 -4.97592
v 10.73365 -0.00000 -4.94588
v 10.97545 -0.00000 -4.90393
v 11.21490 -0.00000 -4.85016
v 11.45142 -0.00000 -4.78470
v 11.68445 -0.00000 -4.70772
v 11.91342 -0.00000 -4.61940
v 12.13778 -0.00000 -4.51995
v 12.35698 -0.00000 -4.40961
v 12.57051 -0.00000 -4.28864
v 12.77785 -0.00000 -4.15735
v 12.97850 -0.00000 -4.01604
v 13.17197 -0.00000 -3.86505
v 13.35779 -0.00000 -3.70476
v 13.53553 -0.00000 -3.53553
v 13.70476 -0.00000 -3.35779
v 13.86505 -0.00000 -3.17197
v 14.01604 -0.00000 -2.97850
v 14.15735 -0.00000 -2.77785
v 14.28864 -0.00000 -2.57051
v 14.40961 -0.00000 -2.35698
v 14.51995 -0.00000 -2.13778
v 14.61940 -0.00000 -1.91342
v 14.70772 -0.00000 -1.68445
v 14.78470 -0.00000 -1.45142
v 14.85016 -0.00000 -1.21490
v 14.90393 -0.00000 -0.97545
v 14.94588 -0.00000 -0.73365
v 14.97592 -0.00000 -0.49009
v 14.99398 -0.00000 -0.24534
v 15.00000 -0.00000 -0.00000
v 14.99398 -0.00000 0.24534
v 14.97592 -0.00000 0.49009
v 14.94588 -0.00000 0.73365
v 14.90393 -0.00000 0.97545
v 14.85016 -0.00000 1.21490
v 14.78470 -0.00000 1.45142
v 14.70772 -0.00000 1.68445
v 14.61940 -0.00000 1.91342
v 14.51995 -0.00000 2.13778
v 14.40961 -0.00000 2.35698
v 14.28864 -0.00000 2.57051
v 14.15735 -0.00000 2.77785
v 14.01604 -0.00000 2.97850
v 13.86505 -0.00000 3.17197
v 13.70476 -0.00000 3.35779
v 13.53553 -0.00000 3.53553
v 13.35779 -0.00000 3.70476
v 13.17197 -0.00000 3.86505
v 12.97850 -0.00000 4.01604
v 12.77785 -0.00000 4.15735
v 12.57051 -0.00000 4.28864
v 12.35698 -0.00000 4.40961
v 12.13778 -0.00000 4.51995
v 11.91342 -0.00000 4.61940
v 11.68445 -0.00000 4.70772
v 11.45142 -0.00000 4.78470
v 11.21490 -0.00000 4.85016
v 10.97545 -0.00000 4.90393
v 10.73365 -0.00000 4.94588
v 10.49009 -0.00000 4.97592
v 10.24534 -0.00000 4.99398
v 10.00000 -0.00000 5.00000
l 86 87 88 89 90 91 92 93 94 95 96 97 98 99 100 101 102 103 104 105 106 107 108 109 110 111 112 113 114 115 116 117 118 119 120 121 122 123 124 125 126 127 128 129 130 131 132 133 134 135 136 137 138 139 140 141 142 143 144 145 146 147 148 149 150
